<?xml version="1.0" encoding="UTF-8" standalone="no"?>
<!-- Created with Inkscape (http://www.inkscape.org/) -->

<svg
   width="78.344833mm"
   height="49.540207mm"
   viewBox="0 0 78.344833 49.540207"
   version="1.1"
   id="svg5"
   inkscape:version="1.1.2 (0a00cf5339, 2022-02-04)"
   sodipodi:docname="logo.svg"
   xmlns:inkscape="http://www.inkscape.org/namespaces/inkscape"
   xmlns:sodipodi="http://sodipodi.sourceforge.net/DTD/sodipodi-0.dtd"
   xmlns="http://www.w3.org/2000/svg"
   xmlns:svg="http://www.w3.org/2000/svg">
  <sodipodi:namedview
     id="namedview7"
     pagecolor="#ffffff"
     bordercolor="#666666"
     borderopacity="1.0"
     inkscape:pageshadow="2"
     inkscape:pageopacity="0.0"
     inkscape:pagecheckerboard="0"
     inkscape:document-units="mm"
     showgrid="false"
     inkscape:zoom="0.64052329"
     inkscape:cx="276.33656"
     inkscape:cy="24.198964"
     inkscape:window-width="1920"
     inkscape:window-height="1136"
     inkscape:window-x="0"
     inkscape:window-y="27"
     inkscape:window-maximized="1"
     inkscape:current-layer="layer1" />
  <defs
     id="defs2" />
  <g
     inkscape:label="Layer 1"
     inkscape:groupmode="layer"
     id="layer1"
     transform="translate(-30.820081,-60.028821)">
    <path
       style="fill:#2f2f2f;fill-opacity:0.987495;stroke-width:0.264583"
       d="m 47.472599,96.431891 c 0,-0.53028 -1.119813,-0.67476 -6.614583,-0.85343 -4.034315,-0.13119 -4.97353,-0.23559 -5.342694,-0.59392 -0.310722,-0.30161 -0.500022,-1.08304 -0.618076,-2.551427 -0.0936,-1.16416 -0.218869,-2.16568 -0.278387,-2.22559 -0.05952,-0.0599 -0.581195,0.0472 -1.159282,0.23795 -1.304465,0.43051 -1.658024,0.19127 -2.239566,-1.51546 -0.523802,-1.53728 -0.534455,-3.7714 -0.02381,-4.99354 l 0.39235,-0.93903 1.592025,0.17476 1.592025,0.17476 v -2.26994 c 0,-2.939485 0.316878,-3.328354 2.71198,-3.328116 l 1.653645,1.65e-4 -0.09511,-1.389227 c -0.09931,-1.450515 -0.3279,-1.775296 -1.254251,-1.782051 -1.029798,-0.0075 -2.619695,-1.436231 -3.263408,-2.932581 -1.056498,-2.455896 -0.347981,-5.194283 1.726258,-6.671912 0.944786,-0.673039 1.198105,-0.728238 2.923073,-0.636948 2.171662,0.11493 3.206606,0.608302 4.416718,2.105514 0.643502,0.796174 0.82801,1.311427 0.918731,2.56563 0.06243,0.863158 -0.0053,1.910087 -0.150417,2.326507 -0.373232,1.070653 1.201755,6.535183 2.056029,7.13354 0.504507,0.353371 0.570641,0.592158 0.465899,1.682229 -0.143503,1.49346 -0.106423,1.56114 1.181495,2.15652 1.642526,0.75932 1.871516,0.48208 1.735906,-2.10163 -0.109392,-2.084191 -0.07766,-2.256935 0.497798,-2.709588 0.514951,-0.40506 0.751231,-1.171829 1.456815,-4.727611 0.757573,-3.817785 0.807378,-4.349578 0.495771,-5.293754 -0.202182,-0.612617 -0.29793,-1.719786 -0.229973,-2.659272 0.0934,-1.291287 0.273174,-1.803313 0.908907,-2.588785 1.290082,-1.593937 2.051248,-2.025943 3.791357,-2.151811 2.140069,-0.154799 2.750055,0.04212 4.168936,1.345845 1.469565,1.350298 1.967476,2.448091 1.967476,4.337899 0,2.145374 -1.400762,4.250756 -3.278944,4.92834 -0.561917,0.202721 -0.596609,1.216613 -0.147836,4.320485 l 0.315183,2.179923 1.114377,0.425584 c 1.310187,0.500365 1.478777,0.935895 1.426898,3.686225 -0.01945,1.03101 -0.02665,2.04047 -0.01601,2.24324 0.01606,0.30597 0.693533,0.33952 3.982764,0.19723 l 3.963399,-0.17145 0.17312,0.68974 c 0.25537,1.01748 -0.12182,4.41254 -0.53628,4.827 -0.26411,0.26411 -0.49322,0.28588 -0.87244,0.0829 -0.28285,-0.15138 -1.4576,-0.34605 -2.610551,-0.43261 -1.152954,-0.0866 -2.542762,-0.21386 -3.088465,-0.28289 l -0.992188,-0.12551 v 2.21901 c 0,3.550277 -0.109463,3.833177 -1.766813,4.566127 -1.27988,0.56603 -1.802374,0.62974 -5.186043,0.63236 -4.426607,0.003 -5.836129,0.17731 -5.637298,0.69546 0.103792,0.27046 -0.155823,0.35996 -1.044186,0.35996 -0.831547,0 -1.182321,-0.10884 -1.182321,-0.36685 z m 5.783882,-16.940848 c 0.160636,-0.588001 0.174746,-0.927593 0.03263,-0.785482 -0.258987,0.258988 -0.711599,2.188613 -0.458234,1.953603 0.07844,-0.0728 0.269962,-0.59842 0.425601,-1.168121 z m -8.532878,-2.20532 c -0.715995,-2.388106 -1.143195,-4.290253 -0.998549,-4.446133 0.09662,-0.104122 -0.382507,0.213701 -1.064723,0.706274 -1.297576,0.936874 -1.488013,1.513924 -1.037755,3.144546 0.180424,0.653413 0.415933,0.736383 2.89129,1.018595 0.215061,0.02452 0.29539,-0.137599 0.209737,-0.423282 z m 11.863931,-3.307292 c -0.192608,-3.016147 -0.372578,-3.478568 -1.269751,-3.262513 -0.269057,0.06479 -0.421947,0.05056 -0.339757,-0.03163 0.08219,-0.08219 -0.292986,-0.471217 -0.833726,-0.864505 l -0.983159,-0.715069 -0.710735,3.59441 c -0.390903,1.976926 -0.718325,3.743238 -0.727604,3.925139 -0.01238,0.242752 0.657691,0.33073 2.518974,0.33073 h 2.53584 z"
       id="path1222" />
    <text
       xml:space="preserve"
       style="font-style:normal;font-variant:normal;font-weight:bold;font-stretch:normal;font-size:11.2889px;line-height:1.25;font-family:Purisa;-inkscape-font-specification:'Purisa, Bold';font-variant-ligatures:normal;font-variant-caps:normal;font-variant-numeric:normal;font-variant-east-asian:normal;stroke-width:0.264583"
       x="30.131458"
       y="109.06103"
       id="text4969"><tspan
         sodipodi:role="line"
         id="tspan4967"
         style="font-style:normal;font-variant:normal;font-weight:bold;font-stretch:normal;font-size:11.2889px;font-family:Purisa;-inkscape-font-specification:'Purisa, Bold';font-variant-ligatures:normal;font-variant-caps:normal;font-variant-numeric:normal;font-variant-east-asian:normal;stroke-width:0.264583"
         x="30.131458"
         y="109.06103">Silent Score</tspan></text>
  </g>
</svg>
